<?xml version="1.0" standalone="no"?>
<!DOCTYPE svg PUBLIC "-//W3C//DTD SVG 20010904//EN"
 "http://www.w3.org/TR/2001/REC-SVG-20010904/DTD/svg10.dtd">
<svg version="1.0" xmlns="http://www.w3.org/2000/svg"
 width="20.000000pt" height="20.000000pt" viewBox="0 0 450.000000 450.000000"
 preserveAspectRatio="xMidYMid meet">

<g transform="translate(0.000000,450.000000) scale(0.100000,-0.100000)"
fill="#000000" stroke="none">
<path d="M2865 4464 c-16 -8 -138 -123 -271 -255 l-241 -241 54 -51 c67 -65
76 -100 38 -145 -21 -25 -35 -32 -62 -32 -30 0 -45 9 -92 55 l-55 56 -1093
-1093 c-740 -740 -1100 -1106 -1113 -1134 -22 -45 -25 -88 -10 -131 6 -15 81
-98 167 -185 l156 -156 49 33 c94 65 233 102 337 89 262 -32 454 -226 477
-483 10 -112 -28 -252 -91 -335 l-33 -43 157 -156 c86 -85 167 -160 180 -167
32 -16 114 -14 148 4 15 8 520 507 1122 1110 l1095 1095 -47 50 c-63 68 -65
126 -5 157 42 22 78 10 129 -42 l44 -44 238 237 c243 242 276 284 277 351 0
58 -25 93 -183 250 l-153 153 -54 -35 c-126 -83 -302 -106 -442 -58 -332 114
-467 498 -276 786 l31 48 -149 150 c-82 82 -161 156 -176 164 -35 18 -115 18
-153 -2z m-160 -844 c41 -41 49 -55 49 -86 0 -45 -40 -84 -86 -84 -43 0 -138
93 -138 136 0 56 49 99 100 88 14 -3 47 -27 75 -54z m290 -290 c41 -41 49 -55
49 -86 0 -28 -7 -42 -28 -60 -45 -40 -81 -32 -143 29 -65 66 -70 101 -23 149
42 42 79 34 145 -32z m288 -289 c40 -40 49 -55 50 -86 1 -29 -5 -43 -27 -61
-45 -40 -81 -32 -143 29 -44 45 -53 60 -53 90 0 27 7 41 32 62 44 37 79 28
141 -34z m280 -279 c68 -65 79 -123 29 -162 -44 -35 -79 -26 -139 33 -44 45
-53 60 -53 89 0 37 13 59 45 77 31 18 76 4 118 -37z"/>
</g>
</svg>
